<?xml version="1.0" encoding="utf-8"?>
<!-- Generator: Adobe Illustrator 24.1.0, SVG Export Plug-In . SVG Version: 6.00 Build 0)  -->
<svg version="1.1" id="Layer_1" xmlns="http://www.w3.org/2000/svg" xmlns:xlink="http://www.w3.org/1999/xlink" x="0px" y="0px"
	 viewBox="0 0 933.9 318.7" style="enable-background:new 0 0 933.9 318.7;" xml:space="preserve">
<style type="text/css">
	.st0{fill:#34A1FF;}
	.st1{fill:#CCCCCC;}
	.st2{font-family:'MyriadPro-Regular';}
	.st3{font-size:172px;}
</style>
<path d="M277.4,184.5c0.8-3.6-1.6-7.2-5.2-7.9c-0.5-0.1-0.9-0.1-1.4-0.1h-2c-3.1,0-5.8,2.1-6.5,5.1c-9.9,45.3-49.6,79.9-97.4,81.8
	c-73.6,3-131.3-70.8-99.5-147.7c9.7-23.3,28.3-41.9,51.6-51.5c52.7-21.8,104-1.4,130,37.2c2,3,6,3.9,9.1,2l1.2-0.7
	c3.4-2.1,4.4-6.5,2.3-9.9c0-0.1-0.1-0.1-0.1-0.2C230.9,50.3,176,27.3,118.6,47.2c-32.4,11.1-58,36.3-69.6,68.6
	c-30.2,84,31.7,163,111.6,163C216.9,278.7,265.4,239.4,277.4,184.5z"/>
<path class="st0" d="M152,0.2C70.1,3.8,3.8,70.3,0.2,152.2c-0.8,17.5,1.3,35,6.2,51.9c1.2,4,5.4,6.2,9.4,5c0.4-0.1,0.7-0.3,1.1-0.4
	l0.1-0.1c3.4-1.6,5.1-5.4,4-9c-4.4-15-6.3-30.5-5.7-46.1c3-74.4,63.2-134.8,137.5-138.1c82.4-3.6,150.5,62.4,150.5,143.9
	c0,79.4-64.6,144.1-144.1,144.1c-10.5,0-20.9-1.1-31.1-3.4c-2.7-0.6-5.5,0.4-7.2,2.6c-2.7,3.4-2.1,8.2,1.2,10.9
	c0.9,0.7,2,1.2,3.1,1.5c13,2.8,26.4,4,39.8,3.5c82.6-3,149.9-69.7,153.4-152.3C322.6,72.9,245.6-4,152,0.2z"/>
<path class="st1" d="M228,211.3c-0.2-1.8-0.8-3.6-1.6-5.2c-1.4-2.3-3.1-4.4-5.1-6.2c-4-4-8.2-8.1-11.8-11.7l-6.2-6.2
	c0.3-0.6,0.6-1.3,0.9-1.9l0.1-0.2c1.4-2.7,2.6-5.4,3.6-8.1c11.4-31.4-4.8-66.1-36.2-77.5c-2.9-1-5.8-1.9-8.9-2.5
	c-1.9-0.4-3.8-0.6-5.6-0.8l-2.6-0.3h-0.2h-6.7h-0.4l-2.2,0.3c-1.5,0.2-3.3,0.4-5,0.8c-15.3,2.7-28.9,11.3-38,23.9
	c-6.7,9-10.6,19.7-11.4,30.9c0,0.1,0,0.2-0.1,0.3l-0.1,0.4c0,0.2-0.1,0.4-0.1,0.6v6.9c0,0.1,0,0.1,0,0.2c0.1,0.8,0.2,1.5,0.3,2.3
	c0.2,1.6,0.4,3.4,0.8,5.1c6.1,32.8,37.5,54.5,70.3,48.4c7-1.3,13.8-3.8,19.9-7.5c2.6,2.6,5.2,5.3,7.8,7.9c3.4,3.4,6.9,6.9,10.3,10.4
	c2.3,2.4,5,4.4,8,5.8c3.4,1.4,7.2,1.4,10.6,0c2.2-0.8,4.3-2.2,5.9-4C227.2,219.8,228.5,215.6,228,211.3z M193.1,190.5
	c0.6,0.7,1.3,1.4,1.9,2l10.7,10.7c3.5,3.5,7,7,10.4,10.5c0.6,0.5,0.8,1.3,0.7,2c-0.2,0.6-0.7,1.1-1.3,1.2c-0.5,0.1-1,0.2-2-0.8
	c-7.1-7.1-14.1-14.1-21.2-21.2l-1.6-1.5l-0.3-0.3L193.1,190.5z M198,150.9c0,26-21,47.1-47,47.1h-0.1c-12.4,0-24.3-4.9-33-13.6
	c-18.4-18.3-18.5-48-0.2-66.4c8.8-8.8,20.7-13.8,33.2-13.8l0,0c12.5,0,24.4,4.9,33.2,13.7C193,126.5,198,138.5,198,150.9L198,150.9z
	"/>
<path class="st1" d="M149.8,109.6h-0.6c-4.4,0-7.4,2.7-7.5,6.7s2.9,6.7,7.2,6.9c1.9,0,3.7,0.2,5.6,0.6c14.1,2.8,24.3,15.1,24.4,29.5
	c0.1,4.1,2.9,7.1,6.8,7.1h0.1c1.8,0,3.6-0.8,4.8-2.1c1.3-1.4,2-3.3,1.8-5.3c-0.1-2.5-0.4-5-0.8-7.5
	C188.3,125.4,170.3,110,149.8,109.6z"/>
<text transform="matrix(1 0 0 1 335.7105 216.936)" class="st2 st3">TaoScan</text>
</svg>
